<mxfile host="app.diagrams.net" agent="Mozilla/5.0 (Windows NT 10.0; Win64; x64) AppleWebKit/537.36 (KHTML, like Gecko) Chrome/135.0.0.0 Safari/537.36" version="26.2.14">
  <diagram id="f106602c-feb2-e66a-4537-3a34d633f6aa" name="Page-1">
    <mxGraphModel grid="1" page="1" gridSize="10" guides="1" tooltips="1" connect="1" arrows="1" fold="1" pageScale="1" pageWidth="1169" pageHeight="827" background="none" math="0" shadow="0">
      <root>
        <mxCell id="0" />
        <mxCell id="1" parent="0" />
        <mxCell id="Lif8JBEafslfNm7ranTe-1" value="&lt;b&gt;Google &lt;/b&gt;Cloud Project" style="fillColor=#F6F6F6;strokeColor=none;shadow=0;gradientColor=none;fontSize=14;align=left;spacing=10;fontColor=light-dark(#999999, #8c8c8c);9E9E9E;verticalAlign=top;spacingTop=-4;fontStyle=0;spacingLeft=40;html=1;rounded=0;" vertex="1" parent="1">
          <mxGeometry x="40" y="50" width="940" height="520" as="geometry" />
        </mxCell>
        <mxCell id="Lif8JBEafslfNm7ranTe-2" value="" style="shape=mxgraph.gcp2.google_cloud_platform;fillColor=#F6F6F6;strokeColor=none;shadow=0;gradientColor=none;" vertex="1" parent="Lif8JBEafslfNm7ranTe-1">
          <mxGeometry width="23" height="20" relative="1" as="geometry">
            <mxPoint x="20" y="10" as="offset" />
          </mxGeometry>
        </mxCell>
        <mxCell id="7YV4VI5LsFfIet1Sol2g-16" value="" style="fillColor=#dae8fc;strokeColor=#6c8ebf;shadow=0;fontSize=14;align=left;spacing=10;9E9E9E;verticalAlign=top;spacingTop=-4;fontStyle=0;spacingLeft=40;html=1;" vertex="1" parent="Lif8JBEafslfNm7ranTe-1">
          <mxGeometry x="25.8247311827957" y="46.06" width="742.347311827957" height="233.15" as="geometry" />
        </mxCell>
        <mxCell id="7YV4VI5LsFfIet1Sol2g-22" value="VPC - Packer" style="sketch=0;html=1;verticalAlign=middle;labelPosition=right;verticalLabelPosition=middle;align=left;spacingTop=0;fontSize=11;fontStyle=1;fontColor=#999999;shape=image;aspect=fixed;imageAspect=0;image=data:image/svg+xml,PHN2ZyB4bWxucz0iaHR0cDovL3d3dy53My5vcmcvMjAwMC9zdmciIHhtbG5zOnY9Imh0dHBzOi8vdmVjdGEuaW8vbmFubyIgd2lkdGg9IjIwIiBoZWlnaHQ9IjIwIiB2aWV3Qm94PSIwIDAgMjAgMjAiPiYjeGE7CTxzdHlsZSB0eXBlPSJ0ZXh0L2NzcyI+JiN4YTsJLnN0MHtmaWxsOiM0Mjg1ZjQ7fSYjeGE7CS5zdDF7ZmlsbDojNjY5ZGY2O30mI3hhOwkuc3Qye2ZpbGw6I2FlY2JmYTt9JiN4YTsJPC9zdHlsZT4mI3hhOwk8cGF0aCBjbGFzcz0ic3QyIiBkPSJNMTQgMGg2djZoLTZ6Ii8+JiN4YTsJPHBhdGggY2xhc3M9InN0MSIgZD0iTTE3IDBoM3Y2aC0zeiIvPiYjeGE7CTxwYXRoIGNsYXNzPSJzdDIiIGQ9Ik0xNCAxNGg2djZoLTZ6Ii8+JiN4YTsJPHBhdGggY2xhc3M9InN0MSIgZD0iTTE3IDE0aDN2NmgtM3oiLz4mI3hhOwk8cGF0aCBjbGFzcz0ic3QyIiBkPSJNMCAwaDZ2NkgweiIvPiYjeGE7CTxwYXRoIGNsYXNzPSJzdDEiIGQ9Ik0zIDBoM3Y2SDN6Ii8+JiN4YTsJPHBhdGggY2xhc3M9InN0MiIgZD0iTTAgMTRoNnY2SDB6Ii8+JiN4YTsJPGcgY2xhc3M9InN0MSI+JiN4YTsJCTxwYXRoIGQ9Ik0zIDE0aDN2Nkgzek02IDJoOHYySDZ6Ii8+JiN4YTsJCTxwYXRoIGQ9Ik02IDE2aDh2Mkg2ek0xNiA2aDJ2OGgtMnpNMiA2aDJ2OEgyeiIvPiYjeGE7CTwvZz4mI3hhOwk8cGF0aCBjbGFzcz0ic3QwIiBkPSJNMiA2aDJ2Mkgyem0xNCAwaDJ2MmgtMnpNNiAyaDJ2Mkg2em0wIDE0aDJ2Mkg2eiIvPiYjeGE7PC9zdmc+;spacingLeft=5;labelBorderColor=none;strokeWidth=0;movable=1;resizable=1;rotatable=1;deletable=1;editable=1;locked=0;connectable=1;points=[[0,0,0,0,0],[0,0.25,0,0,0],[0,0.5,0,0,0],[0,0.75,0,0,0],[0,1,0,0,0],[0.25,0,0,0,0],[0.25,1,0,0,0],[0.5,0,0,0,0],[0.5,1,0,0,0],[0.75,0,0,0,0],[0.75,1,0,0,0],[1,0,0,0,0],[1,0.25,0,0,0],[1,0.5,0,0,0],[1,0.75,0,0,0],[1,1,0,0,0]];" vertex="1" parent="Lif8JBEafslfNm7ranTe-1">
          <mxGeometry x="41.318681318681314" y="51.86440677966102" width="17.28813559322034" height="17.28813559322034" as="geometry" />
        </mxCell>
        <mxCell id="7YV4VI5LsFfIet1Sol2g-26" value="" style="fillColor=#fff2cc;strokeColor=#d6b656;shadow=0;fontSize=14;align=left;spacing=10;9E9E9E;verticalAlign=top;spacingTop=-4;fontStyle=0;spacingLeft=40;html=1;gradientColor=none;" vertex="1" parent="Lif8JBEafslfNm7ranTe-1">
          <mxGeometry x="51.64835164835165" y="77.79661016949153" width="692.0879120879121" height="172.6393220338983" as="geometry" />
        </mxCell>
        <mxCell id="7YV4VI5LsFfIet1Sol2g-28" value="Subnet - Packer-subnet" style="sketch=0;html=1;verticalAlign=middle;labelPosition=right;verticalLabelPosition=middle;align=left;spacingTop=0;fontSize=11;fontStyle=1;fontColor=#999999;shape=image;aspect=fixed;imageAspect=0;image=data:image/svg+xml,PHN2ZyB4bWxucz0iaHR0cDovL3d3dy53My5vcmcvMjAwMC9zdmciIHhtbG5zOnY9Imh0dHBzOi8vdmVjdGEuaW8vbmFubyIgd2lkdGg9IjIwIiBoZWlnaHQ9IjE4Ljc1OTk5ODMyMTUzMzIwMyIgdmlld0JveD0iMCAwIDIwIDE4Ljc1OTk5ODMyMTUzMzIwMyI+JiN4YTsJPHN0eWxlIHR5cGU9InRleHQvY3NzIj4mI3hhOwkuc3Qwe2ZpbGw6IzQyODVmNDt9JiN4YTsJLnN0MXtmaWxsOiM2NjlkZjY7fSYjeGE7CS5zdDJ7ZmlsbDojYWVjYmZhO30mI3hhOwk8L3N0eWxlPiYjeGE7CTxwYXRoIGNsYXNzPSJzdDEiIGQ9Ik0xMC42MiAxNi40NUw0LjMgMTAuMzFsLTEuMzYuNzcgNi41OSA2LjUyem01LjA3LTcuNjNsMS43OC0uMzgtNi45LTdMOS40OCAyLjZ6IiBmaWxsLXJ1bGU9ImV2ZW5vZGQiLz4mI3hhOwk8cGF0aCBjbGFzcz0ic3QwIiBkPSJNOS4zOCAyLjUxaDEuMjV2NUg5LjM4em0wIDkuMzdoMS4yNXY1SDkuMzh6Ii8+JiN4YTsJPGcgY2xhc3M9InN0MiI+JiN4YTsJCTxjaXJjbGUgY3g9IjEwIiBjeT0iMS44OCIgcj0iMS44OCIvPiYjeGE7CQk8Y2lyY2xlIGN4PSIxMCIgY3k9IjE2Ljg4IiByPSIxLjg4Ii8+JiN4YTsJPC9nPiYjeGE7CTxwYXRoIGNsYXNzPSJzdDEiIGQ9Ik0xOS4zNyAxMC42M0g0LjNMLjY2IDguNzZoMTUuMDd6IiBmaWxsLXJ1bGU9ImV2ZW5vZGQiLz4mI3hhOwk8ZyBjbGFzcz0ic3QyIj4mI3hhOwkJPGNpcmNsZSBjeD0iMi41IiBjeT0iOS42OSIgcj0iMi41Ii8+JiN4YTsJCTxjaXJjbGUgY3g9IjE3LjUiIGN5PSI5LjY5IiByPSIyLjUiLz4mI3hhOwk8L2c+JiN4YTs8L3N2Zz4=;spacingLeft=3;" vertex="1" parent="Lif8JBEafslfNm7ranTe-1">
          <mxGeometry x="61.97802197802198" y="86.4406779661017" width="20.74576271186441" height="19.760338983050847" as="geometry" />
        </mxCell>
        <mxCell id="7YV4VI5LsFfIet1Sol2g-31" value="Games VM&lt;div&gt;Instance&lt;/div&gt;" style="sketch=0;html=1;verticalAlign=top;labelPosition=center;verticalLabelPosition=bottom;align=center;spacingTop=-6;fontSize=11;fontStyle=1;fontColor=#999999;shape=image;aspect=fixed;imageAspect=0;image=data:image/svg+xml,PHN2ZyB4bWxucz0iaHR0cDovL3d3dy53My5vcmcvMjAwMC9zdmciIHhtbG5zOnY9Imh0dHBzOi8vdmVjdGEuaW8vbmFubyIgd2lkdGg9IjIwIiBoZWlnaHQ9IjIwIiB2aWV3Qm94PSIwIDAgMjAgMjAiPiYjeGE7CTxzdHlsZSB0eXBlPSJ0ZXh0L2NzcyI+JiN4YTsJLnN0MHtmaWxsOiM0Mjg1ZjQ7fSYjeGE7CS5zdDF7ZmlsbDojNjY5ZGY2O30mI3hhOwkuc3Qye2ZpbGw6I2FlY2JmYTt9JiN4YTsJPC9zdHlsZT4mI3hhOwk8cGF0aCBjbGFzcz0ic3QyIiBkPSJNNyA3aDZ2Nkg3eiIvPiYjeGE7CTxwYXRoIGNsYXNzPSJzdDEiIGQ9Ik05IDBoMnY0SDl6TTUgMGgydjRINXptOCAwaDJ2NGgtMnoiLz4mI3hhOwk8cGF0aCBjbGFzcz0ic3QwIiBkPSJNOSAxNmgydjRIOXptLTQgMGgydjRINXptOCAwaDJ2NGgtMnptMy01VjloNHYyem0wIDR2LTJoNHYyem0wLThWNWg0djJ6Ii8+JiN4YTsJPHBhdGggY2xhc3M9InN0MSIgZD0iTTAgMTFWOWg0djJ6bTAgNHYtMmg0djJ6bTAtOFY1aDR2MnoiLz4mI3hhOwk8cGF0aCBjbGFzcz0ic3QyIiBkPSJNMyAzdjE0aDE0VjN6bTEyIDEySDVWNWgxMHoiLz4mI3hhOwk8cGF0aCBjbGFzcz0ic3QxIiBkPSJNMTAgMTBsLTMgM2g2eiIvPiYjeGE7CTxwYXRoIGNsYXNzPSJzdDAiIGQ9Ik0xMyA3bC0zIDMgMyAzeiIvPiYjeGE7PC9zdmc+;" vertex="1" parent="Lif8JBEafslfNm7ranTe-1">
          <mxGeometry x="216.9230769230769" y="129.66101694915255" width="51.86440677966102" height="51.86440677966102" as="geometry" />
        </mxCell>
        <mxCell id="7YV4VI5LsFfIet1Sol2g-32" value="Desktop VM&lt;div&gt;Instance&lt;/div&gt;" style="sketch=0;html=1;verticalAlign=top;labelPosition=center;verticalLabelPosition=bottom;align=center;spacingTop=-6;fontSize=11;fontStyle=1;fontColor=#999999;shape=image;aspect=fixed;imageAspect=0;image=data:image/svg+xml,PHN2ZyB4bWxucz0iaHR0cDovL3d3dy53My5vcmcvMjAwMC9zdmciIHhtbG5zOnY9Imh0dHBzOi8vdmVjdGEuaW8vbmFubyIgd2lkdGg9IjIwIiBoZWlnaHQ9IjIwIiB2aWV3Qm94PSIwIDAgMjAgMjAiPiYjeGE7CTxzdHlsZSB0eXBlPSJ0ZXh0L2NzcyI+JiN4YTsJLnN0MHtmaWxsOiM0Mjg1ZjQ7fSYjeGE7CS5zdDF7ZmlsbDojNjY5ZGY2O30mI3hhOwkuc3Qye2ZpbGw6I2FlY2JmYTt9JiN4YTsJPC9zdHlsZT4mI3hhOwk8cGF0aCBjbGFzcz0ic3QyIiBkPSJNNyA3aDZ2Nkg3eiIvPiYjeGE7CTxwYXRoIGNsYXNzPSJzdDEiIGQ9Ik05IDBoMnY0SDl6TTUgMGgydjRINXptOCAwaDJ2NGgtMnoiLz4mI3hhOwk8cGF0aCBjbGFzcz0ic3QwIiBkPSJNOSAxNmgydjRIOXptLTQgMGgydjRINXptOCAwaDJ2NGgtMnptMy01VjloNHYyem0wIDR2LTJoNHYyem0wLThWNWg0djJ6Ii8+JiN4YTsJPHBhdGggY2xhc3M9InN0MSIgZD0iTTAgMTFWOWg0djJ6bTAgNHYtMmg0djJ6bTAtOFY1aDR2MnoiLz4mI3hhOwk8cGF0aCBjbGFzcz0ic3QyIiBkPSJNMyAzdjE0aDE0VjN6bTEyIDEySDVWNWgxMHoiLz4mI3hhOwk8cGF0aCBjbGFzcz0ic3QxIiBkPSJNMTAgMTBsLTMgM2g2eiIvPiYjeGE7CTxwYXRoIGNsYXNzPSJzdDAiIGQ9Ik0xMyA3bC0zIDMgMyAzeiIvPiYjeGE7PC9zdmc+;" vertex="1" parent="Lif8JBEafslfNm7ranTe-1">
          <mxGeometry x="485.4945054945055" y="129.66101694915255" width="51.86440677966102" height="51.86440677966102" as="geometry" />
        </mxCell>
        <mxCell id="7YV4VI5LsFfIet1Sol2g-33" value="&quot;packer-credentials&quot;&lt;div&gt;Secret&lt;/div&gt;" style="sketch=0;html=1;verticalAlign=top;labelPosition=center;verticalLabelPosition=bottom;align=center;spacingTop=-6;fontSize=11;fontStyle=1;fontColor=#999999;shape=image;aspect=fixed;imageAspect=0;image=data:image/svg+xml,PHN2ZyB4bWxucz0iaHR0cDovL3d3dy53My5vcmcvMjAwMC9zdmciIGlkPSJzdmc1MzkzNyIgdmVyc2lvbj0iMS4xIiB2aWV3Qm94PSIwIDAgMTc1LjE2MDYzIDEwNC4yNzczNSIgaGVpZ2h0PSIxMDQuMjc3MzVtbSIgd2lkdGg9IjE3NS4xNjA2M21tIj4mI3hhOyAgPHBhdGggZD0ibSAxMjguNTY5MSwzNC4xMTUyMzYgdiAxMi45Nzg1MTYgbCAtMTIuMzM3ODksLTQuMzgwODYgLTIuNTA5NzcsNy4wNjgzNiAxMi41NDEwMiw0LjQ1MzEyNSAtOC41NjA1NSwxMS40MzE2NCA2LjAwMTk2LDQuNDk2MDk0IDguNTk5NjEsLTExLjQ4MDQ2OSA4LjQ5NDE0LDExLjQ2NDg0NCA2LjAyNzM0LC00LjQ2NDg0NCAtOC40NzI2NiwtMTEuNDMzNTkzIDEyLjY0MDYzLC00LjQ2Njc5NyAtMi41LC03LjA3MDMxMyAtMTIuNDIzODMsNC4zOTA2MjUgViAzNC4xMTUyMzYgWiBtIC00NC43NzY4NzIsMCB2IDEyLjk3ODUxNiBsIC0xMi4zMzc4OTEsLTQuMzgwODYgLTIuNTA5NzY1LDcuMDY4MzYgMTIuNTQxMDE1LDQuNDUzMTI1IC04LjU2MDU0NywxMS40MzE2NCA2LjAwMTk1Myw0LjQ5NjA5NCA4LjU5OTYxLC0xMS40ODA0NjkgOC40OTQxNCwxMS40NjQ4NDQgNi4wMjczNDcsLTQuNDY0ODQ0IC04LjQ3MjY1OSwtMTEuNDMzNTkzIDEyLjY0MDYyOSwtNC40NjY3OTcgLTIuNSwtNy4wNzAzMTMgLTEyLjQyMzgzMiw0LjM5MDYyNSBWIDM0LjExNTIzNiBaIG0gLTQ0Ljc3Njg1LDAgdiAxMi45Nzg1MTYgbCAtMTIuMzM3ODkxLC00LjM4MDg2IC0yLjUwOTc2NSw3LjA2ODM2IDEyLjU0MTAxNSw0LjQ1MzEyNSAtOC41NjA1NDcsMTEuNDMxNjQgNi4wMDE5NTMsNC40OTYwOTQgOC41OTk2MSwtMTEuNDgwNDY5IDguNDk0MTQsMTEuNDY0ODQ0IDYuMDI3MzQ0LC00LjQ2NDg0NCAtOC40NzI2NTYsLTExLjQzMzU5MyAxMi42NDA2MjUsLTQuNDY2Nzk3IC0yLjUsLTcuMDcwMzEzIC0xMi40MjM4MjgsNC4zOTA2MjUgViAzNC4xMTUyMzYgWiBNIDE3NS4xNjA2NCwxMGUtNyBWIDEwNC4yNzczNCBoIC0zNy4yNzY4MiBjIC0xLjIwODU3LDAgLTIuMDAyNDgsLTAuNjIzNTQgLTIuMDAyNDgsLTEuODY2MzQgdiAtOS45MjcyMzggYyAwLC0xLjE0ODI1IDAuNzE1OTYsLTEuNzA2NDIgMi4wMDI0OCwtMS43MDY0MiBoIDIzLjc3NjgyIFYgMTMuNSBoIC0yMy45NDQ5OCBjIC0xLjQwODU1LDAgLTEuOTUxNTEsLTAuNzUyMzE3IC0xLjk1MTUxLC0yLjA3NDQ4MiBWIDEuODQyNzI2IGMgMCwtMS4yNjU5NzEgMC42OTgwOCwtMS44NDI3MjUgMS45NTE1MSwtMS44NDI3MjUgeiBNIDAsMCB2IDEwNC4yNzczNSBoIDM3LjI3NjgxNCBjIDEuMjA4NTcxLDAgMi4wMDI0ODMsLTAuNjIzNTQgMi4wMDI0ODMsLTEuODY2MzQgdiAtOS45MjcyMzggYyAwLC0xLjE0ODI1IC0wLjcxNTk1NywtMS43MDY0MiAtMi4wMDI0ODMsLTEuNzA2NDIgSCAxMy41IFYgMTMuNDk5OTk5IGggMjMuOTQ0OTczIGMgMS40MDg1NTIsMCAxLjk1MTUxMSwtMC43NTIzMTcgMS45NTE1MTEsLTIuMDc0NDgyIFYgMS44NDI3MjUgQyAzOS4zOTY0ODQsMC41NzY3NTQgMzguNjk4NDEsMCAzNy40NDQ5NzMsMCBaIiBzdHlsZT0iY29sb3I6IzAwMDAwMDtvcGFjaXR5OjE7ZmlsbDojNDI4NWY0O2ZpbGwtb3BhY2l0eToxOy1pbmtzY2FwZS1zdHJva2U6bm9uZSIvPiYjeGE7PC9zdmc+;" vertex="1" parent="Lif8JBEafslfNm7ranTe-1">
          <mxGeometry x="840" y="242.5" width="42" height="25" as="geometry" />
        </mxCell>
        <mxCell id="7YV4VI5LsFfIet1Sol2g-34" value="Games Image&#xa;Built with Packer" style="shape=image;verticalLabelPosition=bottom;labelBackgroundColor=none;verticalAlign=top;aspect=fixed;imageAspect=0;image=data:image/png,iVBORw0KGgoAAAANSUhEUgAAAgAAAAIACAYAAAD0eNT6AAAACXBIWXMAAAsTAAALEwEAmpwYAAAgAElEQVR4nO3de5CcV3nn8ZF8t2MbbGJbPT3d5/QMiJUxFaOFXQNZxSFcXLXAJgvLBtZkqayBFCmHS/BIsqyxJSRky0IeTZ8zbuxELJdAlIVyYcfBLJeUa7k5KQMayfJFV18krNFl+pweWTLSvFstB+OLLt3T/b7P+77n+6l6/lWp3zn9/H7zdk93Tw8AAAAAAAAAAAAAAAAAAAAAAAAAAAAAAAAAAAAAAAAAAAAAAAAAAAAAAAAAAAAAAAAAAAAAAAAAAAAAAAAAAAAAAAAAAAAAAAAAAAAAAAAAAAAAAAAAAAAAAAAAAAAAAAAAAAAAAAAAAAAAAAAAAAAAAAAAAAAAAAAAAAAAAAAAAAAAAAAAAAAAAAAAAAAAAAAAAAAAAAAAAAAAAAAAAAAAAAAAAAAAAAAAAAAAAAAAAAAAAAAAAAAAAAAAAAAAABlVrjYu0ab+bm38Em3cvdq4XyjjdijjnbY+YrgGeTwDyvq6tm67tu7nyrh/bJ5/VXXvHRieLEo/JwEgNq+puVcp6z6qjP9/2rgp6WXMcA1SdQaM36iNv7Fs3L9jDQHIBW3867X167R1R8SXLMM1yMAZUNb/qHmHrCeKZkg/fwGgbcrWZ2vjv8Vv+/KBwmTzGijr1mvr/ivrB0AmzBuKTlXWDWrjnpFeoAzXIA9noPl+gfLofiX93AaA4yrX3GuVdb+UXpgM1yCHZ6BRNu7jrB8AqVOuNt6lrd+fgkXJcA3yfAa+OGdddLr08x0AjtLWf0YbdzgFy5HhGoRwBv65vHr/K1g/AEQp0/jrFCxEhmsQ1hkw/icXr9x1DusPgAht/KfFFyHDNQj0DCjjvjswHJ3B+gOQKGUbfya9ABmuQfBnwLjVrD4AiSlXG7+njZsMfvkSwASw+BlwR8rGX8n6A5DIR/o+93nm0ouP4RpwBo6eAeO3zb5z/FzWH4BYaevXEjwED2cgZWeAlwIAxKky6t7CR/umYNkzXIOXF4DDZdu4nA0IIJaP+G1+bS/hQ/hwBtJ5BpR1D/QMRTNZfwC6Slf9p6QXHMM14AycpARU3TWsPgBdU642LlHGT7B8CWDOQMrPgPF7K9ZfxPoD0BXaum+ILzaGa8AZaPUMrGX1AeiYMm4eb/wjfAnfDJ0B46b4bAAAHWl+65i2/iHxhcZwDTgDbZ0BZd2GubXoNFYggGnR1i1k8RK+nIFsngFl3HWsPgBtq9QOlLT1DeklxnANOAPTPAPGTZbW7NesPwBt0dbfxeIlfDkDmT8Dd7H6ALRM2cY7U7C4GK4BZ6ALZ0DZ+ntYfwBOqrgqOktbv4XwIXw4A/k4A8q4HRev3HUO6w/ACWnjl0gvLIZrwBnocgmwfjmrD8Bx9VcnBrRxz7B8CWDOQL7OgDLuUGnUzWH9ATgmZdw/Si8qhmvAGYirBPj7e6JoBusPwIvoqnsfi5fw5Qzk+wwo27ia1QfgebNq0dnauu3Sy4nhGnAGYi4Axo8XRuoXsv4AHKWNv4XFS/hyBoI5A6OsPgA9zTcGKeOeTcFSYrgGnIFEzoA7Ur69fgXrDwicMu77BA/BwxkI6wwo6345byg6VXr/ABCijf8f0ouI4RpwBqRKgL+W5QsEaGB4z3nauqdYvgQwZyDMM6CMd8XRyV7pXQQgYdq6NdILiOEacAaEz4BxX2f5AgGpjPjLlHW/ZvkSwJwBzkDZNq6S3kkAkjAUzdTG/5jFz+LnDHAGjr4UYP1j5bXRmSxgIOe0df+Lxc/i5wxwBl78fgC3WHo3AYhR8Y6JC5T1u1n+LH/OAGfgRQXAuoPK1mezgIGc0tZ/kcXP4ucMcAaOfQbcfdI7CkAMtJl8Y/MTwFj+LH/OAGfgBGfg/SxgIE+GopnK+J+x+Fn8nAHOwInPgNtVqe07X3plAegSPer/ksXP4ucMcAZa/GyA1SxfIAf0Hf5ibf1+lj/LnzPAGWixABwu28bl0rsLQIeUdV9h8bP4OQOcgXbOgLLugeZLhyxgIKMqVfdWbdwUy5/lzxngDLR7BlTVXSO9wwBMQ/OrPptf+cniZ/FzBjgD0/ueAL+3Yv1FLGAgY5Stf5bFz+LnDHAGOjwDa6V3GYA2DAxPFpX1nuXP8ucMcAY6OgPGTZWNv5IFDGSEsv4fWPwsfs4AZ6AbZ0BZt2FuLTpNeq8BOAk96t/O4mfxcwY4A908A8q461i+QIrNWRedro1/mOXP8ucMcAa6egaMmyyt2a+ldxyA41DW3cDiZ/FzBjgDMZ2Bu1i+QApVagdK2voGy5/lzxngDMR1BpStv0d61wF4CWX9t1n8LH7OAGcgzjOgjNtx8cpd57CAgZRQVfdeFj+LnzPAGUjiDCjrl0vvPAA9PT3FVdFZ2vqtLH+WP2eAM5BIATDuUGnUzWEBA8KU8ctY/Cx+zgBnIMkzoIy/vyeKZkjvPyBYldH6q5V1B1n+LH/OAGcg6TOgbONq6R0IBEsbdy+Ln8XPGeAMSJwBZfx4YaR+ofQeBIKjjP8Ai5/FzxngDAifgVHpXQgEZfad4+dq455k+bP8OQOcAdkz4I6Ub69fIb0TgWAo61ax+Fn8nAHOQBrOgLLul/OGolOl9yKQe/1Vf6ky7lnpJz3DNeAMcAZ+WwL8tdK7Eci3KJqhjfshi5fFyxngDKTpDCjjXXF0sld6RQK5pWzjz6Sf6AzXgDPAGTjmGTDu69I7EsilgeE952njdrJ8Wb6cAc5AWs9A2Taukt6VQO4o6430k5vhGnAGOAMnfCnA+sfKa6MzpfclkBv9dnKuNu4wy5flyxngDKT9DCjjFkvvTCAfhqKZ2vifSD+pGa4BZ4Az0FIBsO6gsvXZ0qsTyLyycR9n8bJ4OQOcgWydAXef9O4EMq35OdvNz9uWfzIzXAPOAGeg7TPwfukdCmSWsv5vWToED2eAM5DNM+B2VWr7zpfeo0Dm9Jv6m7VxU/JPYoZrwBngDEzzDBi3WnqXAtmyLjpFW/dzlg7BwxngDGT6DBh3uGwbl0uvVCAzytZ/UvyJy3ANOAOcgS6cAWXdA82/ZpLeq0DqlauNS5TxEyxfli9ngDOQlzOgqu4a6d0KpJ6y7u+kn6wM14AzwBno6hkwfm/F+ouk9yuQWqrq/hNv/GPxEr6cgZyegbXSOxZIpTnrotO19Q+l4EnKcA04A5yB7p8B46bKxl8pvWuB1KlYN5+lQ/BwBjgDeT4DyroNc2vRadL7FkiNfnOgT1nvpZ+cDNeAM8AZiL0EGHed9M4FUkMb/y0WL4uXM8AZCOIMGDdZWrNfS+9dQJyyjXeKPyEZrgFngDOQ7Bm4S3r3AqIGhqMzlPWPsHxZvpwBzkBoZ0DZ+nuIIARLG3+j9JOQ4RpwBjgDIgXAuB0Xr9x1jvQeBhI3UJvo18Y9w/Jl+XIGOAOhngFl/XLiB8FR1t8j/eRjuAacAc6AaAEw7lBp1M2R3sdAYirG/QmLl8XLGeAMcAaaJcDf3xNFM4gg5N6sWnS2Nn4bT3yWP2eAM8AZ+M1LAY2rpXczEDtt/Qqe9Cx+zgBngDPwwpcC/HhhpH4hEYTc0iP11yjrDvLEZ/lzBjgDnIGXnYFR6R0NxEYZ932e9Cx+zgBngDNwrDPgjpRvr19BBCF3KtZ/kCc9i58zwBngDJzozwLdL+cNRadK72ugawaG95ynrXuKJ352l/8n7nsmikNx2Y6u/1/v3fzrrv8/79noo/Lq8a7/X+PwsXW/ilTViZ8ZZnrXQFl/LfGD3NDGDbMMsr0Q4yoAs65b3/USEEcBuHv9RDRrcKzrJSAOH/3qjqiw+BFKQEZHGe+Ko5O90nsb6FhlxF+mrPu19JOKSW8B6HYJiK0ANP+vXS4BcRWA5v+19wZKQGaf98Z9nfhBtkXRDGX9j8SfTEzqC0A3S0CsBaDLJSDOAnC0BHAnILPP/7JtXCW9woFp08b9ufSTiMlOAehWCYi9AHSxBMRdAJ4vAYb3BGRtFyjrHyuvjc4kgpA5xTsmLlDW75Z+EjHZKgDdKAGJFIAulYAkCsBzLwc8SgnI4D5Qxi2W3uVA27T1NeknD5PNAtBpCUisAHShBCRVAJ67E0AJyNpOaH5wmrL12UQQMqNy++S/b36ohfSTh8luAeikBCRaADosAUkWgN+UAM3LARnbDe4+6Z0OtGYomqmM/5n8k4bJegGYbglIvAB0UAKSLgC/eTmAEpC5/fB+Igipp63/RAqeLExOCsB0SoBIAZhmCZAoAEdLwNBjkTZ1nieZ2RVuV6W273zp/Q4cV8X6i7T1++SfLEyeCkC7JUCsAEyjBEgVgN+WAP46IDP7wrjVxA9SS1v3v8WfJEwuC0A7JUC0ALRZAiQLACUgY/vCuMNl27hces8DL1Opurdq46bEnyRMbgtAqyVAvAC0UQKkC8BzJWAzdwIysjeUdQ8032dFBCE1mt9epY37hfSTg8l/AWilBKSiALRYAtJQACgB2dodququkd75wPO09Z+RflIw4RSAk5WA1BSAFkpAWgoAJSBDO8T4vc33WxFBEFeuNi5Rxk+IPymYoArAiUpAqgrASUpAmgoAJSBTe2St9O4Hmp/3//cpeDIwARaA45WA1BWAE5SAtBWAo9f0Rt4TkPqdYtxU2fgriSCI0db/kfgTgQm6AByrBKSyABynBKSxABy9E3DTZr47IOW7RVm3YW4tOo0IROLmrItO18Zvkn4SMBSAl5aA1BaAY5SAtBaA39wJ4FsE071jlHHXEX9InDbueunDzyR3DdJ8B+CldwJSXQBeUgLSXACOXtObtlAC0rxrjJssrdmviUAkplI7UNLWN8QPP0MBOEYJSH0BeEEJSHsBeO5OwJbm7Waeb+ndN3cRf0iMsv7bKTj0TILXIAt3AH4z94zV018ArlsfFeaPRVkoAM3pbd4JoASkducoW38PEYjYlauNd0kfdib5a5ClAtAM6ywUgOZkpQAcvRNACUjt7lHG7bh45a5ziEDEprgqOktbv0X6sDMUAApA8gWAEpDu3aOsX078ITba+KXSh5yRuQbcAeAOACUg3ftHGXeoNOrmEIHouv7qxIA27hnpQ85QAHgJQOYlgJe+J4CvEk7fPlLG398TRTOIQHSVNu5e6cPNyF0D7gBwB+BlLwcs2cZzMoV7SdnG1cQfukZb/37pQ83IXgMKAAXgmO8JWLKV52bK9pMyfrwwUr+QCETHZtWis7V126UPNUMB4K8AZP8K4LhvDKQEpHE/jRJ/6Jgy7tYUHGaGAkABSGkBOFoClnInIF3jjpRvr19BBGLa+qv+UmXcs/KHmZG+BrwEwEsA3AnI1h5S1v1y3lB0KhGI9kXRDG3dD6QPMZOOa0ABoAC0dieANwamqwT4a4k/tE2ZxoelDy8T/zVA2OJ5T8C2SBuev2nYX8p4Vxyd7CUC0bKB4T3naeN2Sh9ehgKA7BUASkDKdpdxXyf+0DJlXFX80DKJXAOELd43BnInIC17rGwbVxGBOKnSSOMN2rjD0geWoQAg2wXgaAn43A5eDkjBPlPWP1ZeG51JBOL4hqKZ2vgfSx9WJrlrgLAl8ieCzRLA81r8GijjFhN/OC5l3UelDymT7DVA2JIoAJSAdOw1Zd1BZeuziUC8TPGOiQuaHyEpfUgZCgDyVwCa08edgBTsN3cf8YeXUdbfKX84maSvAcKWZAGgBKRmv72fCMTztJl8Y/OjI1NwMBkKAHJcAI6WgGW8J0B217ldldq+84lA9PSsi07Rxj1I+IZZPhA2iQLAnQD55702bjXxh+at/2vFD2PgH7ErOQhb84uDpObj39oj/vwLdow7XLaNy4nAgOk7/MXa+v3ihzHgAULGnwjK7R5l3QPNP/2WziEIUcZ9VToAQx8gZEdfDlj+hPjzMNRRVXcNARwgbd3va+OmpA9g6AOE7Pn3BFACZHaQ8Xsr1l8knUdIUPM7opV166XDj6EAIGwvemMgJUBqJ64lgAOijLuO8E1HAQFC9rK/DqAECNwFcFNl46+UziUkoN8c6FPWe+ngYygAwDH/RPDzvCcg6f2orNswtxadRgjnnLL+m4RvegoIELLjfk4AdwKSLwHGXSedT4iRMo13SAceQwEATlYAnrsT8CT7Ismdadxkac1+TQjn0MBwdIY2/mECOF0lBAjZST8xkBKQ9E66SzqrEANl3ZB02DEUAKCdAtCcEiUg2d1p6u8mhHNEVQ+Um7d3COD0lZA8uv3+cdGPmM3jNK9pHrX63QGlFbwckNROUsbtuHjlrnOkcwtdooy/WzromHAKQDOwpL5kJq/TvKZ51PI1GGyWgKfYI0mVAOuXE8A5UDbuvxC+6S0geUQBoAC0qq0iRAlI8i7AodKomyOdX+jArFp0trZ+q3TIMRQA6d+gsz7B3wGgBCS+R5Xx9/dE0QxCOKOU8Z8nfNNdQPKIOwAUgFZNqxANro/6bublgERKgG1cLZ1jmIbKaP3VyrqD0gHHUACkf3vOw3AHgBIgsUuV8eOFkfqFhHDGKOu+R/imv4DkEXcAKACt6qgYcScgqT01Kp1naEOl6v9UOtgYCoD0b815Gu4AHL8ElG7eyb6Jdee6I+Xb61cQwhkw+87xc7VxTxLA2SghecQdAApAq7pSkCgBse8pZd0vm18jL51vOAlt3GrpUGMoANK/MedtuANACZDeq8r6awngFKtY/zpl3LPSB4WhAEgHZt6GAtDadSrdwssBsRUA411xdLJXOudwLFE0Q1v/z4RvtgpI83POJYOFlwDCLgDSj6vrMzgWlW7ZJf68zu0Y93UCOIUqpv4R8cPBZK4EUABSEFoUgO6XgJWUgLj2cdk2rpLOO7xAyU68Uhn3NAGc3RIiVQIoAPLhTgGI4ZpRAmLbVcr6x8prozMJ4ZRo/p2mdIAx2SwBFAD5cKcAxHTdeDkgvhJg3GLp3ENPT0+/nZyrjTtMAOejhCRdAigA8uFOAYjx2nEnIJ4CYN1BZeuzCWFJQ9FMbf1PpUOLyW4JoADIhzsFIObrRwmIaUe7+ygAgirW/QXhm88CklQJoADIhzsFIIFrODgWlXljYBy76v2UAAHNL2jQ1u+RDiom2yWAAiAf7hSAhK4jJSCGPeV2VWr7zqcEJExbv5bwzX8BibsEUADkw50CkNx1LDRLwK1Piz+vczXGraYAJKgy6t6ijZsS/8EzmS8BFAD5cKcACJSAVZQA3b0CcLhsG5dTAhLQ/EIGbdwvCN+wCkhcJSArBeANyzYd/XezMM3/KwUg5cOdgKib+0lZ90DzTemUgJjpqv+UdBgx+SkBWSkAWfos/Cw9fvEgpgTkZp+qqruGAhCjcrVxiTJ+QvoHzeSnBIQegKE/fvEQlh5eDoi6tp+M31ux/iJKQEy0dd8gfCkg3SwBoQdg6I9fPIDTMJSAqIu5spYCEANl3Dze+Ef4d/tOQOgBGPrjFw/fNH1Y0K27ubtpO70L4KbKxl9JCeiiOeui07X1D/HbPwWg2y8HhB6AoT9+8eBN0zRLwCpKgO5wzyrrNsytRadRArpEW7eQ8Cf843hPQOgBGPrjFw/dtM3ghqhMCYg6LgHGXUcB6IJK7UBJW9+gAFAA4nhjYOgBGPrjFw/ctJaAL3AnQHf2UsBkac1+TQno/Ld/3vhH+Mf21wGhB2Doj188bNM6gxuiEiUg6mz3um9QADoJf+Nfr607QgDy239cJSD0AAz98YsHbZqHEhB1+obA5tfVUwKmXQDcvYQ/4R9nCQg9AEN//OIhm4mXA8Y7fk082DHuOxSA6YT/6MSbxH94TOzX4N7Nv+763DNWj+5eP9HShB6AoT/+Vs9JXCMe8K1+dwAlIJrujivfXr+CEtAmZb0hgPNfQvIoSwEYh9Affzukw73loQREHey5GgWgzS/8UcY9LR1ODAVgOkIPwNAffzvEg50SECWw5/cNDEdnUAJaVLaNqwjfMApIHoUegKE//naIh/p0SsBq3hOg29xzFeP+hALQIm3csHQwMRSA6Qo9AEN//O0QD/RpTGF+swTsYUfa1nekMt5SAFqkrP8RARxGCcmj0AMw9MffDukwpwT4RPacsu5fKQCtWBedwif/yQczBWD6Qg/A0B9/O6SDvLMSsIE7AbbVOwDu2eKq6CxKwEn0V/2l0qHEUAA6EXoAhv742yEd4pQAn9i+50OBWrn9bxrvIIDDKSF5FHoAhv742yEd4F0rAbfxngB9kl1XrjbexR2AkxYA/wHpUGIoAJ0IPQBDf/ztkA7vrg0lIDpZblSs/yAF4CTKxn2cAA6nhORR6AEY+uNvh3hwd7sE8NcB0XH33aj/SwrASWjrPyMdSgwFoBOhB2Doj78d4qEdRwng5YDoWBlStv6TFADuAFAwuAOQ6wCkALROPLApAVFSv/Ap0/gwBYD3AFAAKAAUgBwXoHaIh3VMU5i/MSoP72XX2Rfu+/p/pgDwVwA8KSgAFAAKQK4LACXAv2zPV0bdWygAJ1EZ8ZfxGnw4JSGPQr8FHvrjb4d0SCdSAm7jToC2PhoYdr9LAWjhmwC1dQekg4mhAExX6AEY+uNvh3RAJ1ICFlACtPHbCP8WaeN/TACHUULyKPQADP3xt0M6nBMtAQG/J0AZ/38oAC1Sxo1I/8AYCsB0hR6AoT/+dkgHc9IlQN22L8jdqoy7jgLQ8h2A+rulf2AMBWC6Qg/A0B9/O6RDmRLgE9n15Zp7LQWgRXNr0Wna+j2EcP6LSB6FHoChP/52SAeyWAkYDuhOgHEPEv5t0tbXxH9wTOzX4J6NPrp7/YTYxCH0AMzS45c8e82RDmOxWfhQOCXAuAUUgDZVqu6t4j84JvZr0PzY0ObHh0ototADMPTHLx6EAU9hwUORWrM/13tWGfesqh4oUwCmQRn3fekfIJPvEhB6AIb++KVDMPRploDycI5LgHFfIvynSZvJN2rjpsR/iExuS0DoARj645cOQGZ9VFiY1xLgjvRX/aUUgA5o6++S/0EyeS0BoQdg6I+fAE5PCcjbywHK+n8g/DvUX50Y0MY9I/3DZPJZAkIPwNAfv3TwMfksAcq6g8rWZ1MAukAbv0T6B8rkswSEHoChP34COF0lJC8lQFk3RPh3SXFVdJYyfrP0D5XJXwkIPQBDf/zSgcfkrwQo4x8tr43OpAB0kbKNd0r/YJn8lYDQAzD0x08Ap7OEZLwE/BHhHwNl/TdT8MNlclQCQg/A0B+/dNAx+SoByrivEv4x6TcH+pT1XvqHzOSnBIQegKE/fgI4/SVAZ6QEKOvrfSOTBQpAjJStf1b6B83kpwRkJQDfsGzT0X83C9P8v1IA5MMzL1O4flMmSkDFur8g/GM2byg6VRv3C+kfNpOPEpCVAhD6cAcg7DlaAkbSWwKUcf/Ssy46hQKQ1PcE8AmBQU63SwAFQH65UwDkr28WprAwpSXAuMOlkcYbCP8ENT9jWfwHz2S+BFAA5Bc7BUD++mbpToAamUjX7jVuNeGfsMJI/UJl/Lj4D5/JdAmgAMgvdQqA/PXN0qSqBBi3s1Lbdz4FQEDZuI+LHwAm0yWAAiC/0CkA8tc3a5OaElB17yP8pQxFM7XxPxE/BExmSwAFQH6ZUwDkr28WR7wEGPcdwl9Y880XzTdhEMLhFpFOSgAFQH6RUwDkr29WR64EuAMlO1GRzj8c/cpgt0Y6hJhslgAKgPwSpwDIX98sT2HRwwIlwC0kfFNiYHjPedq6pwjhsIvIdEoABUB+gVMA5K9v1ifJEqCsf2RgODpDOvfwAnrUf0g6gJjslQAKgPzypgDIX9+8lABdrce7Y4ybqlj/h4RvCinrvicdQEx71yCP+CTA7BQAadKhmbdJoASslc45HEdltP5qZd1BQjg7RSSPKAAUgFZJB2ZuS8BIDCXA+L0V6y8igFNMGb9MOtQYCoD0EszbcAdA/meQpSkseqTrJUBV3TXS+YaTKK6KztLWbyWEs1FE8og7ABSAVkkHZZ6nmyVAGf+z5ufOEMAZULaNq6SDjaEASC/APA13AOR/BpktAR2+J0BZ9+tytfF70rmGNmjr7yKE019E8og7ABSAVkkHZAjT22kJMP4WwjdjKrUDJW19QzrgGAqA9ALMw3AHQP5nkOUpLH6k+Rr+dH77f3xO9enfkc4zTIM2bgEBnO4SkkfcAaAAtEo6GEOa6ZQAVXXvJXwzas666HRt/EbpkGMoANLLL+vDHQD5n0EepveGNkqAcfdKZxg6pK37/eanNxHC6SwiecQdAApAq6QDMcTpbeVOgHGTpTX7NQGcA8q6r0gHHRNOAbj9/vGjJYDp3jVoXtM8kg7DoEuAOX4JULb+WencQpfoO/zF2vr9hHD6iggQMukgDHl6b3j0mCVAGTc2txadRgDniLb+E9Jhx1AAAApAikrA4peUgOaX/Yy6t0jnFbptKJqprf8pIZyuIgKETDoAmfVHS4D+bQn4IuGbU/12cq427rB06DEUAIACkJ4C0jv0WLME7H1Nzb1KOqcQI2W8JYDTU0KAkEkHH7P+uQJw/cNRac3+Pyd8c65S23e+Nm6ndPAxFACAAE5BCRlcH5VWPr2+J4pmSOcTEqBM48MEcDpKCBAy8fBjouKSLUdKo24O4RuKKJqhrfuBdPgxFACEjQAWLiELNkTl1Xtvk44kJKzZ+JRxzxLC3AEAKABh3g3oW/HUnotX7jqHAA6Qtv5mCgAFAKAABPo1wbfX3y2dQxAyqxadrY3fRgmQKwEfW/cr0Y/MRdikP65ZOgRDncJ1Y1F51e7/S/gGrjzq/pgCIHgXwLijH8kptQgQNukgYmSuQXHp9kMDw5NF6fxBCijrv00JCLMEIGwEcHglpLBgY9S3ZmK+dO4gJSq1AyVtfYMSEF4JQNikw4hJ/hr03bxr+7yh6FTp3EGKKOsWUQDCKwEIGwEcVgnpHXp0qnx7/QrpvEHKzFkXna6N30QJCKsEIGzSgcQkeA0Gx6LS6t1fk84apJQybl7z6yApAeGUAISNAA6nhHq725MAAA+RSURBVBSXPe5LduKV0jmDFFPW/R0FIJwSgLBJhxKTzDUoLHwoqlTr/1M6X5By5WrjEm39fvEAZBIpAQgbARxGCSmt3MWX/aA1yvi/IoDDKAEIm3QwMfFfg96bNh8p19xryT+0Zl10ijbuQfHwY2IvAQgbAZzvElKYPxapL+xZRfShLdpMvlFbd4QQTkkREf7EwLg+NjiO/+vd6ye6/v9s/ptZKWB8xK588KZl+pY/MV5eG51J/KFt2vqaePAxqSgBFAAKgHSYMe1dg8KihyNt+LIfTFPxjokLlPW7CeEUFRGhEkABoAAQwNkqIaWVT3+X8ENHKqb+EfHQY8RLAAWAAiAdaEzr16C4dNuhvpHJAvGHzkTRDG3cDwnhsEsABYACQABn58t+1G17ryP60BX9VX+pMu5Z8dBjxEoABYACIB1sTGvXoG/FU1ubf8lF/KFrlHG3EsDhlgAKAAWAAE5/Celd/GikqvX/QPShq2bVorO1ddvFA48RKQEUAAqAdLgxJ7kGg2NR+dbdXyH6EAtdde8jgMMsARQACgABnO4SUvzctkZ59f5XEH+IjbL+HvGwYxIvARQACoB0wDEn/rIfVd13NdGHWA3UJvq1cc8QwmGVAAoABYAATm8JKd2y80GiD4lQ1g2JBx2TaAmgAFAApEOOOfY16B167HDzFzPiD4kYGI7O0MY/TAiHUwIoABQAAjiFJWRwQ1T6wjhf9oNk6VH/dvGQYxIrARQACoB42DEvuwZ9y3eMN38hI/+QOG39OkI4jBJAAaAAEMDpKiG91z8cqeGJdxB9EFGqNWYp4yfEQ46JvQRQACgA0oHHvOAaDDa/7GfXfUQfRGnjP00A578EUAAoAARwekpIccmWQxXrLyL+IGreUHSqtu7n4gHHxFoCKAAUAOnQY/7tGizYEJVv2/sZog+poEcn3qStO0II57cEUAAoAARwOkpI3/IntvUMRTOl9z7wPGX834iHGxNbCaAAUACkg49ZH/UueniqNNJ4A9GDVCneMXGBMn6cEM5nCaAAUAAI4DR82c+uL0vveuCYVNVdIx5sTCwlgAJAAaAAyBaA4pJtbk716d8hfpBOQ9FMZf2PCOH8lQAKAAWAAiAX/oUFG6Pi8PiHpFc8cEKVEX+ZMu5Z8WBjuloCKAAUAAqAXAHoW/EUX/aDbNDGrSaA81UCKAAUAAqATPj3Dj16uLRmv5be60BLZt85fq427knxUGO6VgIoABQACoBAARgci0q3Pn0r0YNMUcZ/gADOTwmgAFAAKADJF4Di53Y8PbcWnSa9z4G2aePuFQ80pislgAJAAaAAJBv+hYUPRcrwZT/IqP7qxIA27hlCOPslgAJAAaAAJFsA+m7Z+R3pHQ50RBu/RDzMmI5LAAWAAkABSC78e2/cenBg2P0u8YNMK66KzlLGbyaEs10CKAAUAApAQrf+549F+tZffVp6dwNdoWzjneJBxnRUAj72jZ1RHOJYoHevn+j6/7P5b8bxf41Ds6wR1tmd4rIntvRE0QziB7mhrP8mIRzmVwkzXAPOQIu//S/aNFW2+y+X3tdAV/WbA33Kei8eZAwlgEAmkFN6BvpW8GU/yCll658lgDNeQrgTIB4STD6vQXHJFn/xyl3nSO9pIBbzhqJTtXG/EA8xhhKQgoXPcA1e+GU/5dv2fZDoQa5Vqu6t2rgpQjjjRYQ7AQQ4Ad693/4//+S/SO9mIBHauC+JBxhDCSDAKDEpOAO9ix45wpf9IBiFkfqFyvhxQjgHRYQ7AeIBwmT4GgyOReWVu2+W3slAosrGfVw8vBhKgHQAMEFfg+LSbbv5sh+EZyiaqY3/CSGckyLCnQDxMGGydQ0KCzdGpTXjfyi9igERpZHGG7Rxh8XDi6EEpCAQmLCuQWnFk/9E9CBoyrgRAjhHJYQ7AeLBwqT/GhQWP3ao+V4o6f0LiBoY3nOetu4p8eBiKAEpCAYmgGswuCHqW7n7U0QP0PyzwFH/IQI4ZyWEOwHyQcOk8hoUl+3gy36AF1LGfV88tBhKQAoCgsnvNShcv2mqOLLvMrY/8AJ6pP4aZd1BQjhnRYQ7AeKhw6TkGgw2v+znqS+z+IFjUMYvEw8shhIgHRRMLq9B8aYtrrgqOovlDxxD88mhrd9KCOewiHAnQDyAGMFrsGBDVLr1Vx9i8QMnULaNq8TDiqEEEJgUhm7+9r/scb7sB2iFtv4uQjinRYQ7AQRrYOWqsOjhwwVzoI/tD7SgUjtQ0tY3xMOKoQSkIECYDF+DwbGob+VOvuwHaIc2bgEBnOMSwp0A+XBiYr8GvUu2Pt2zLjqF7Q+0Yc666HRt/EbxoGIoAQQlZWEaZ6CwYGPzjX9vY/ED06Ct+31t3BQhnOMiwp0AwjWnBatv+ZP3sviBDijrviIeUgwlIAWBwmTnGhQWP3KwvHr/K1j+QAf0Hf5ibf1+QjjnRYQ7AeKhxXTxjX837+TLfoBu0NZ/QjygGEoAIUlJaOEM9C7ZtpnND3TLUDRTW/9TQjiAIsKdAEI2w0WrsHDjlL5t3+tZ/kAX9dvJudq4w+IBxVACUhA0TDqvQXHFk19h8QMxUMZbAjiQEsKdAPEwY9q7Br1DW1x5bXQmyx+IQaW273xt3E7xcGIoAQQkBeGFt/7nj0Xq5l0fYPEDMVKm8WECOKASwp0AgjYDZau4bDtf9gPELopmaOt+IB5MDCUgBcHDyF+DwvWbDhfMXr7sB0hCadTNUcY9SwgHVES4EyAedMyxr0Hf8qduYfMDCdLW3yweSgwlgGAMuhgUl2x5uvlnyix/IEGzatHZ2vhthHBgRYQ7AeKhx/z2y37Kq8f/gMUPCCiPuj8WDySGEkAoBlkKepft+CcWPyBIGX83IRxgEeFOgHgAhjyFRY8c4st+AGGqeqCsrW+IBxJDCUhBMDEJXIPBsai0Yte10rsPwHNfGbyIAA60hHAngNBPuPj0Ltm6hcULpMScddHp2vhN4mHEUAL4LTzXhaSwYONUceWu10nvPAAvoIybp42bIoQDLSLcCRAPxxCmb9njX2bxAimkjfu6eBAxlIAUBBXT/WvQe8NjfmA4OkN6zwE4hnK1cYm2fj8hHHAR4U4A4R9HARoci4ornvogixdIMWX8X4mHEEMJ4LfwXBWR4tJtfNkPkHrrolO0cQ8SwoEXEe4EiIdmXqawcNPhvpvHC9KrDUALtJl8o7buiHgIMZSAFAQY08E1GGy+8e+JlSxeIEO09TUCmBLCnQAKQCcFqPfGzb9qfgW59D4D0IbiHRMXKOt3UwIoAZQASsC0CsD8DVHvql1XsniBDKqY+kcoABQA3hNAAZhOAej7HF/2A2RXFM3Qxv2QEkAJoARQAtp849+hgeE950mvMAAd6K/6S5Vxz1ICKAGUAEpAa2/8G4v6VjzxSRYvkAPKuFspABQA/kSQAtDaG/+2bJbeWQC6ZFYtOltbt50SQAmgBFACTnjrf8GGqeKqxy9j+QI5oqvufRQACgAfFkQBOFEBKH6OL/sBcklZfw8lgBJACaAEHPO3/xse8XNr0WnSewpADAZqE/3auGcoAZQASgAl4KVv/CuvePK/s3iBHFPWDVEAKAB8dwAF4EVv/FvCl/0Audf8Pm9t/MOUAEoAJYAScLQALHzo8KtH9/RK7yYACdCj/u0UAAoA3yJIAfi3T/y7lcULBERbv44SQAmgBIRdAnoXP7abL/sBAlOqNWYp4ycoAZQASkCYUxgci3qXPvEH0rsIgABt/KcpABSA454B46LeGx4VDyomnmvQt3T7d1i8QKDmDUWnaut+TgmgBFACAisa12869MoVW86X3kEABOnRiTdp645QAigBlIAUBHNCU172+GdYvAB6lPF/QwGgAJzwDPByQG6m98bNfNkPgOcU75i4QBk/TgmgBFACcj7zN0wVV+56HbsPwPNU1V1DAaAAnPQMcCcg27/9L9n2VdYegBcbimZq439MCaAEUALyOYVFjzTmfpQv+wFwDJURf5ky7llKACWAEpCzGRyLissf/1MWH4Dj0satpgBQAFo6A7wckJnpvXHLv7L2AJzQ7DvHz9XGPUkJoARQAvIxhQUbD/fdvKPA6gNwUsr4D1AAKAAtnwHuBKR6+pZu58t+ALROG3cvJYASQAnI9vTe8Og4X/YDoC391YkBbdwzlABKACUgozM4FhWWbX8bqw9A27TxSygAFIC2zgAvB6Rmiku2fpe1B2Baiquis5TxmykBlABKQLamsHDToQtvHj+X1Qdg2pRtvJMCQAFo+wxwJ0Dw1v/6qLh0+1+z9gB0TFn/TUoAJYASkI3pvfGxLaw9AF3Rbw70Kes9JYASQAlI+cwfm+pd9sTrWX0AukbZ+mcpABSAaZ0BXg5I7rf/m7Z+jbUHoKvmDUWnauN+QQmgBFAC0jmF6zc1emp82Q+AGFSq7q3auClKACWAEpDCL/tZypf9AIiRNu5LFAAKwLTPAC8HxHPrf2jzgyw+ALF6Tc29Shu3kxJACZjuGVBVFxUWPyL/W3NeZuFDB0tf2D6L1QcgdnrUv52XAigAHZVA7gR0JfwLg2NThc/teDdrD0BilHWruAtACejkDHAnoPMC0Ldky1LWHoBEDQxHZyjjvk8JoARwJ0Do0/5u3PoV1h4AEbNq0dnK+h9RAigBlIBkw7/3pi3fYO0BEFUYqV+ojBujBFACeDkgiQIwFvUt2fq3rD0AqTD7zvFzlfXfpgRQArgTEGP4z994pHfJjk9JP98B4MXWRafwxkAKQKclkDcGHufd/tc/7MorfvUfWTsAUqts/JXa+Ie5G0AZ4E8Eu/F6/1hUvHHLvT1DG06Xfm4DQGtvDjT+89q4ZygCFAHuBEwv+HsXP7q1tPTJN7NyAGROxfqLtPU3Ket3UwQoArwc0Nqb/AqLH320tGz726SfvwDQseKq6Cw16v+bMu5r2vp9lAHKAJ8Y+JLX+Bdtmui9cfPfF5Y/+RpWDoDcfq1wv6m/WY26jynrjTbuh9r6h7R1TynrPeWAcpDXNwYW5o9NFeY/9OvC9ZsmCzc8srN3aMv3CjdtX9S75IlXSz8vAQAAAAAAAAAAAAAAAAAAAAAAAAAAAAAAAAAAAAAAAAAAAAAAAAAAAAAAAAAAAAAAAAAAAAAAAAAAAAAAAAAAAAAAAAAAAAAAAAAAAAAAAAAAAAAAAAAAAAAAAAAAAAAAAAAAAAAAAAAAAAAAAAAAAAAAAAAAAAAAAAAAAAAAAAAAAAAAAAAAAAAAAAAAAAAAAAAAAAAAAAAAAAAAAAAAAAAAAAAAAAAAAAAAAAAAAAAAAAAAAAAAAAAAAAAAAADo6cD/B88Qo6FAyRxWAAAAAElFTkSuQmCC;fontColor=light-dark(#999999, #ededed);" vertex="1" parent="Lif8JBEafslfNm7ranTe-1">
          <mxGeometry x="212.86" y="334" width="60" height="60" as="geometry" />
        </mxCell>
        <mxCell id="7YV4VI5LsFfIet1Sol2g-35" value="Desktop Image&#xa;Built with Packer" style="shape=image;verticalLabelPosition=bottom;labelBackgroundColor=none;verticalAlign=top;aspect=fixed;imageAspect=0;image=data:image/png,iVBORw0KGgoAAAANSUhEUgAAAgAAAAIACAYAAAD0eNT6AAAACXBIWXMAAAsTAAALEwEAmpwYAAAgAElEQVR4nO3de5CcV3nn8ZF8t2MbbGJbPT3d5/QMiJUxFaOFXQNZxSFcXLXAJgvLBtZkqayBFCmHS/BIsqyxJSRky0IeTZ8zbuxELJdAlIVyYcfBLJeUa7k5KQMayfJFV18krNFl+pweWTLSvFstB+OLLt3T/b7P+77n+6l6/lWp3zn9/H7zdk93Tw8AAAAAAAAAAAAAAAAAAAAAAAAAAAAAAAAAAAAAAAAAAAAAAAAAAAAAAAAAAAAAAAAAAAAAAAAAAAAAAAAAAAAAAAAAAAAAAAAAAAAAAAAAAAAAAAAAAAAAAAAAAAAAAAAAAAAAAAAAAAAAAAAAAAAAAAAAAAAAAAAAAAAAAAAAAAAAAAAAAAAAAAAAAAAAAAAAAAAAAAAAAAAAAAAAAAAAAAAAAAAAAAAAAAAAAAAAAAAAAAAAAAAAAAAAAAAAABlVrjYu0ab+bm38Em3cvdq4XyjjdijjnbY+YrgGeTwDyvq6tm67tu7nyrh/bJ5/VXXvHRieLEo/JwEgNq+puVcp6z6qjP9/2rgp6WXMcA1SdQaM36iNv7Fs3L9jDQHIBW3867X167R1R8SXLMM1yMAZUNb/qHmHrCeKZkg/fwGgbcrWZ2vjv8Vv+/KBwmTzGijr1mvr/ivrB0AmzBuKTlXWDWrjnpFeoAzXIA9noPl+gfLofiX93AaA4yrX3GuVdb+UXpgM1yCHZ6BRNu7jrB8AqVOuNt6lrd+fgkXJcA3yfAa+OGdddLr08x0AjtLWf0YbdzgFy5HhGoRwBv65vHr/K1g/AEQp0/jrFCxEhmsQ1hkw/icXr9x1DusPgAht/KfFFyHDNQj0DCjjvjswHJ3B+gOQKGUbfya9ABmuQfBnwLjVrD4AiSlXG7+njZsMfvkSwASw+BlwR8rGX8n6A5DIR/o+93nm0ouP4RpwBo6eAeO3zb5z/FzWH4BYaevXEjwED2cgZWeAlwIAxKky6t7CR/umYNkzXIOXF4DDZdu4nA0IIJaP+G1+bS/hQ/hwBtJ5BpR1D/QMRTNZfwC6Slf9p6QXHMM14AycpARU3TWsPgBdU642LlHGT7B8CWDOQMrPgPF7K9ZfxPoD0BXaum+ILzaGa8AZaPUMrGX1AeiYMm4eb/wjfAnfDJ0B46b4bAAAHWl+65i2/iHxhcZwDTgDbZ0BZd2GubXoNFYggGnR1i1k8RK+nIFsngFl3HWsPgBtq9QOlLT1DeklxnANOAPTPAPGTZbW7NesPwBt0dbfxeIlfDkDmT8Dd7H6ALRM2cY7U7C4GK4BZ6ALZ0DZ+ntYfwBOqrgqOktbv4XwIXw4A/k4A8q4HRev3HUO6w/ACWnjl0gvLIZrwBnocgmwfjmrD8Bx9VcnBrRxz7B8CWDOQL7OgDLuUGnUzWH9ATgmZdw/Si8qhmvAGYirBPj7e6JoBusPwIvoqnsfi5fw5Qzk+wwo27ia1QfgebNq0dnauu3Sy4nhGnAGYi4Axo8XRuoXsv4AHKWNv4XFS/hyBoI5A6OsPgA9zTcGKeOeTcFSYrgGnIFEzoA7Ur69fgXrDwicMu77BA/BwxkI6wwo6345byg6VXr/ABCijf8f0ouI4RpwBqRKgL+W5QsEaGB4z3nauqdYvgQwZyDMM6CMd8XRyV7pXQQgYdq6NdILiOEacAaEz4BxX2f5AgGpjPjLlHW/ZvkSwJwBzkDZNq6S3kkAkjAUzdTG/5jFz+LnDHAGjr4UYP1j5bXRmSxgIOe0df+Lxc/i5wxwBl78fgC3WHo3AYhR8Y6JC5T1u1n+LH/OAGfgRQXAuoPK1mezgIGc0tZ/kcXP4ucMcAaOfQbcfdI7CkAMtJl8Y/MTwFj+LH/OAGfgBGfg/SxgIE+GopnK+J+x+Fn8nAHOwInPgNtVqe07X3plAegSPer/ksXP4ucMcAZa/GyA1SxfIAf0Hf5ibf1+lj/LnzPAGWixABwu28bl0rsLQIeUdV9h8bP4OQOcgXbOgLLugeZLhyxgIKMqVfdWbdwUy5/lzxngDLR7BlTVXSO9wwBMQ/OrPptf+cniZ/FzBjgD0/ueAL+3Yv1FLGAgY5Stf5bFz+LnDHAGOjwDa6V3GYA2DAxPFpX1nuXP8ucMcAY6OgPGTZWNv5IFDGSEsv4fWPwsfs4AZ6AbZ0BZt2FuLTpNeq8BOAk96t/O4mfxcwY4A908A8q461i+QIrNWRedro1/mOXP8ucMcAa6egaMmyyt2a+ldxyA41DW3cDiZ/FzBjgDMZ2Bu1i+QApVagdK2voGy5/lzxngDMR1BpStv0d61wF4CWX9t1n8LH7OAGcgzjOgjNtx8cpd57CAgZRQVfdeFj+LnzPAGUjiDCjrl0vvPAA9PT3FVdFZ2vqtLH+WP2eAM5BIATDuUGnUzWEBA8KU8ctY/Cx+zgBnIMkzoIy/vyeKZkjvPyBYldH6q5V1B1n+LH/OAGcg6TOgbONq6R0IBEsbdy+Ln8XPGeAMSJwBZfx4YaR+ofQeBIKjjP8Ai5/FzxngDAifgVHpXQgEZfad4+dq455k+bP8OQOcAdkz4I6Ub69fIb0TgWAo61ax+Fn8nAHOQBrOgLLul/OGolOl9yKQe/1Vf6ky7lnpJz3DNeAMcAZ+WwL8tdK7Eci3KJqhjfshi5fFyxngDKTpDCjjXXF0sld6RQK5pWzjz6Sf6AzXgDPAGTjmGTDu69I7EsilgeE952njdrJ8Wb6cAc5AWs9A2Taukt6VQO4o6430k5vhGnAGOAMnfCnA+sfKa6MzpfclkBv9dnKuNu4wy5flyxngDKT9DCjjFkvvTCAfhqKZ2vifSD+pGa4BZ4Az0FIBsO6gsvXZ0qsTyLyycR9n8bJ4OQOcgWydAXef9O4EMq35OdvNz9uWfzIzXAPOAGeg7TPwfukdCmSWsv5vWToED2eAM5DNM+B2VWr7zpfeo0Dm9Jv6m7VxU/JPYoZrwBngDEzzDBi3WnqXAtmyLjpFW/dzlg7BwxngDGT6DBh3uGwbl0uvVCAzytZ/UvyJy3ANOAOcgS6cAWXdA82/ZpLeq0DqlauNS5TxEyxfli9ngDOQlzOgqu4a6d0KpJ6y7u+kn6wM14AzwBno6hkwfm/F+ouk9yuQWqrq/hNv/GPxEr6cgZyegbXSOxZIpTnrotO19Q+l4EnKcA04A5yB7p8B46bKxl8pvWuB1KlYN5+lQ/BwBjgDeT4DyroNc2vRadL7FkiNfnOgT1nvpZ+cDNeAM8AZiL0EGHed9M4FUkMb/y0WL4uXM8AZCOIMGDdZWrNfS+9dQJyyjXeKPyEZrgFngDOQ7Bm4S3r3AqIGhqMzlPWPsHxZvpwBzkBoZ0DZ+nuIIARLG3+j9JOQ4RpwBjgDIgXAuB0Xr9x1jvQeBhI3UJvo18Y9w/Jl+XIGOAOhngFl/XLiB8FR1t8j/eRjuAacAc6AaAEw7lBp1M2R3sdAYirG/QmLl8XLGeAMcAaaJcDf3xNFM4gg5N6sWnS2Nn4bT3yWP2eAM8AZ+M1LAY2rpXczEDtt/Qqe9Cx+zgBngDPwwpcC/HhhpH4hEYTc0iP11yjrDvLEZ/lzBjgDnIGXnYFR6R0NxEYZ932e9Cx+zgBngDNwrDPgjpRvr19BBCF3KtZ/kCc9i58zwBngDJzozwLdL+cNRadK72ugawaG95ynrXuKJ352l/8n7nsmikNx2Y6u/1/v3fzrrv8/79noo/Lq8a7/X+PwsXW/ilTViZ8ZZnrXQFl/LfGD3NDGDbMMsr0Q4yoAs65b3/USEEcBuHv9RDRrcKzrJSAOH/3qjqiw+BFKQEZHGe+Ko5O90nsb6FhlxF+mrPu19JOKSW8B6HYJiK0ANP+vXS4BcRWA5v+19wZKQGaf98Z9nfhBtkXRDGX9j8SfTEzqC0A3S0CsBaDLJSDOAnC0BHAnILPP/7JtXCW9woFp08b9ufSTiMlOAehWCYi9AHSxBMRdAJ4vAYb3BGRtFyjrHyuvjc4kgpA5xTsmLlDW75Z+EjHZKgDdKAGJFIAulYAkCsBzLwc8SgnI4D5Qxi2W3uVA27T1NeknD5PNAtBpCUisAHShBCRVAJ67E0AJyNpOaH5wmrL12UQQMqNy++S/b36ohfSTh8luAeikBCRaADosAUkWgN+UAM3LARnbDe4+6Z0OtGYomqmM/5n8k4bJegGYbglIvAB0UAKSLgC/eTmAEpC5/fB+Igipp63/RAqeLExOCsB0SoBIAZhmCZAoAEdLwNBjkTZ1nieZ2RVuV6W273zp/Q4cV8X6i7T1++SfLEyeCkC7JUCsAEyjBEgVgN+WAP46IDP7wrjVxA9SS1v3v8WfJEwuC0A7JUC0ALRZAiQLACUgY/vCuMNl27hces8DL1Opurdq46bEnyRMbgtAqyVAvAC0UQKkC8BzJWAzdwIysjeUdQ8032dFBCE1mt9epY37hfSTg8l/AWilBKSiALRYAtJQACgB2dodququkd75wPO09Z+RflIw4RSAk5WA1BSAFkpAWgoAJSBDO8T4vc33WxFBEFeuNi5Rxk+IPymYoArAiUpAqgrASUpAmgoAJSBTe2St9O4Hmp/3//cpeDIwARaA45WA1BWAE5SAtBWAo9f0Rt4TkPqdYtxU2fgriSCI0db/kfgTgQm6AByrBKSyABynBKSxABy9E3DTZr47IOW7RVm3YW4tOo0IROLmrItO18Zvkn4SMBSAl5aA1BaAY5SAtBaA39wJ4FsE071jlHHXEX9InDbueunDzyR3DdJ8B+CldwJSXQBeUgLSXACOXtObtlAC0rxrjJssrdmviUAkplI7UNLWN8QPP0MBOEYJSH0BeEEJSHsBeO5OwJbm7Waeb+ndN3cRf0iMsv7bKTj0TILXIAt3AH4z94zV018ArlsfFeaPRVkoAM3pbd4JoASkducoW38PEYjYlauNd0kfdib5a5ClAtAM6ywUgOZkpQAcvRNACUjt7lHG7bh45a5ziEDEprgqOktbv0X6sDMUAApA8gWAEpDu3aOsX078ITba+KXSh5yRuQbcAeAOACUg3ftHGXeoNOrmEIHouv7qxIA27hnpQ85QAHgJQOYlgJe+J4CvEk7fPlLG398TRTOIQHSVNu5e6cPNyF0D7gBwB+BlLwcs2cZzMoV7SdnG1cQfukZb/37pQ83IXgMKAAXgmO8JWLKV52bK9pMyfrwwUr+QCETHZtWis7V126UPNUMB4K8AZP8K4LhvDKQEpHE/jRJ/6Jgy7tYUHGaGAkABSGkBOFoClnInIF3jjpRvr19BBGLa+qv+UmXcs/KHmZG+BrwEwEsA3AnI1h5S1v1y3lB0KhGI9kXRDG3dD6QPMZOOa0ABoAC0dieANwamqwT4a4k/tE2ZxoelDy8T/zVA2OJ5T8C2SBuev2nYX8p4Vxyd7CUC0bKB4T3naeN2Sh9ehgKA7BUASkDKdpdxXyf+0DJlXFX80DKJXAOELd43BnInIC17rGwbVxGBOKnSSOMN2rjD0geWoQAg2wXgaAn43A5eDkjBPlPWP1ZeG51JBOL4hqKZ2vgfSx9WJrlrgLAl8ieCzRLA81r8GijjFhN/OC5l3UelDymT7DVA2JIoAJSAdOw1Zd1BZeuziUC8TPGOiQuaHyEpfUgZCgDyVwCa08edgBTsN3cf8YeXUdbfKX84maSvAcKWZAGgBKRmv72fCMTztJl8Y/OjI1NwMBkKAHJcAI6WgGW8J0B217ldldq+84lA9PSsi07Rxj1I+IZZPhA2iQLAnQD55702bjXxh+at/2vFD2PgH7ErOQhb84uDpObj39oj/vwLdow7XLaNy4nAgOk7/MXa+v3ihzHgAULGnwjK7R5l3QPNP/2WziEIUcZ9VToAQx8gZEdfDlj+hPjzMNRRVXcNARwgbd3va+OmpA9g6AOE7Pn3BFACZHaQ8Xsr1l8knUdIUPM7opV166XDj6EAIGwvemMgJUBqJ64lgAOijLuO8E1HAQFC9rK/DqAECNwFcFNl46+UziUkoN8c6FPWe+ngYygAwDH/RPDzvCcg6f2orNswtxadRgjnnLL+m4RvegoIELLjfk4AdwKSLwHGXSedT4iRMo13SAceQwEATlYAnrsT8CT7Ismdadxkac1+TQjn0MBwdIY2/mECOF0lBAjZST8xkBKQ9E66SzqrEANl3ZB02DEUAKCdAtCcEiUg2d1p6u8mhHNEVQ+Um7d3COD0lZA8uv3+cdGPmM3jNK9pHrX63QGlFbwckNROUsbtuHjlrnOkcwtdooy/WzromHAKQDOwpL5kJq/TvKZ51PI1GGyWgKfYI0mVAOuXE8A5UDbuvxC+6S0geUQBoAC0qq0iRAlI8i7AodKomyOdX+jArFp0trZ+q3TIMRQA6d+gsz7B3wGgBCS+R5Xx9/dE0QxCOKOU8Z8nfNNdQPKIOwAUgFZNqxANro/6bublgERKgG1cLZ1jmIbKaP3VyrqD0gHHUACkf3vOw3AHgBIgsUuV8eOFkfqFhHDGKOu+R/imv4DkEXcAKACt6qgYcScgqT01Kp1naEOl6v9UOtgYCoD0b815Gu4AHL8ElG7eyb6Jdee6I+Xb61cQwhkw+87xc7VxTxLA2SghecQdAApAq7pSkCgBse8pZd0vm18jL51vOAlt3GrpUGMoANK/MedtuANACZDeq8r6awngFKtY/zpl3LPSB4WhAEgHZt6GAtDadSrdwssBsRUA411xdLJXOudwLFE0Q1v/z4RvtgpI83POJYOFlwDCLgDSj6vrMzgWlW7ZJf68zu0Y93UCOIUqpv4R8cPBZK4EUABSEFoUgO6XgJWUgLj2cdk2rpLOO7xAyU68Uhn3NAGc3RIiVQIoAPLhTgGI4ZpRAmLbVcr6x8prozMJ4ZRo/p2mdIAx2SwBFAD5cKcAxHTdeDkgvhJg3GLp3ENPT0+/nZyrjTtMAOejhCRdAigA8uFOAYjx2nEnIJ4CYN1BZeuzCWFJQ9FMbf1PpUOLyW4JoADIhzsFIObrRwmIaUe7+ygAgirW/QXhm88CklQJoADIhzsFIIFrODgWlXljYBy76v2UAAHNL2jQ1u+RDiom2yWAAiAf7hSAhK4jJSCGPeV2VWr7zqcEJExbv5bwzX8BibsEUADkw50CkNx1LDRLwK1Piz+vczXGraYAJKgy6t6ijZsS/8EzmS8BFAD5cKcACJSAVZQA3b0CcLhsG5dTAhLQ/EIGbdwvCN+wCkhcJSArBeANyzYd/XezMM3/KwUg5cOdgKib+0lZ90DzTemUgJjpqv+UdBgx+SkBWSkAWfos/Cw9fvEgpgTkZp+qqruGAhCjcrVxiTJ+QvoHzeSnBIQegKE/fvEQlh5eDoi6tp+M31ux/iJKQEy0dd8gfCkg3SwBoQdg6I9fPIDTMJSAqIu5spYCEANl3Dze+Ef4d/tOQOgBGPrjFw/fNH1Y0K27ubtpO70L4KbKxl9JCeiiOeui07X1D/HbPwWg2y8HhB6AoT9+8eBN0zRLwCpKgO5wzyrrNsytRadRArpEW7eQ8Cf843hPQOgBGPrjFw/dtM3ghqhMCYg6LgHGXUcB6IJK7UBJW9+gAFAA4nhjYOgBGPrjFw/ctJaAL3AnQHf2UsBkac1+TQno/Ld/3vhH+Mf21wGhB2Doj188bNM6gxuiEiUg6mz3um9QADoJf+Nfr607QgDy239cJSD0AAz98YsHbZqHEhB1+obA5tfVUwKmXQDcvYQ/4R9nCQg9AEN//OIhm4mXA8Y7fk082DHuOxSA6YT/6MSbxH94TOzX4N7Nv+763DNWj+5eP9HShB6AoT/+Vs9JXCMe8K1+dwAlIJrujivfXr+CEtAmZb0hgPNfQvIoSwEYh9Affzukw73loQREHey5GgWgzS/8UcY9LR1ODAVgOkIPwNAffzvEg50SECWw5/cNDEdnUAJaVLaNqwjfMApIHoUegKE//naIh/p0SsBq3hOg29xzFeP+hALQIm3csHQwMRSA6Qo9AEN//O0QD/RpTGF+swTsYUfa1nekMt5SAFqkrP8RARxGCcmj0AMw9MffDukwpwT4RPacsu5fKQCtWBedwif/yQczBWD6Qg/A0B9/O6SDvLMSsIE7AbbVOwDu2eKq6CxKwEn0V/2l0qHEUAA6EXoAhv742yEd4pQAn9i+50OBWrn9bxrvIIDDKSF5FHoAhv742yEd4F0rAbfxngB9kl1XrjbexR2AkxYA/wHpUGIoAJ0IPQBDf/ztkA7vrg0lIDpZblSs/yAF4CTKxn2cAA6nhORR6AEY+uNvh3hwd7sE8NcB0XH33aj/SwrASWjrPyMdSgwFoBOhB2Doj78d4qEdRwng5YDoWBlStv6TFADuAFAwuAOQ6wCkALROPLApAVFSv/Ap0/gwBYD3AFAAKAAUgBwXoHaIh3VMU5i/MSoP72XX2Rfu+/p/pgDwVwA8KSgAFAAKQK4LACXAv2zPV0bdWygAJ1EZ8ZfxGnw4JSGPQr8FHvrjb4d0SCdSAm7jToC2PhoYdr9LAWjhmwC1dQekg4mhAExX6AEY+uNvh3RAJ1ICFlACtPHbCP8WaeN/TACHUULyKPQADP3xt0M6nBMtAQG/J0AZ/38oAC1Sxo1I/8AYCsB0hR6AoT/+dkgHc9IlQN22L8jdqoy7jgLQ8h2A+rulf2AMBWC6Qg/A0B9/O6RDmRLgE9n15Zp7LQWgRXNr0Wna+j2EcP6LSB6FHoChP/52SAeyWAkYDuhOgHEPEv5t0tbXxH9wTOzX4J6NPrp7/YTYxCH0AMzS45c8e82RDmOxWfhQOCXAuAUUgDZVqu6t4j84JvZr0PzY0ObHh0ototADMPTHLx6EAU9hwUORWrM/13tWGfesqh4oUwCmQRn3fekfIJPvEhB6AIb++KVDMPRploDycI5LgHFfIvynSZvJN2rjpsR/iExuS0DoARj645cOQGZ9VFiY1xLgjvRX/aUUgA5o6++S/0EyeS0BoQdg6I+fAE5PCcjbywHK+n8g/DvUX50Y0MY9I/3DZPJZAkIPwNAfv3TwMfksAcq6g8rWZ1MAukAbv0T6B8rkswSEHoChP34COF0lJC8lQFk3RPh3SXFVdJYyfrP0D5XJXwkIPQBDf/zSgcfkrwQo4x8tr43OpAB0kbKNd0r/YJn8lYDQAzD0x08Ap7OEZLwE/BHhHwNl/TdT8MNlclQCQg/A0B+/dNAx+SoByrivEv4x6TcH+pT1XvqHzOSnBIQegKE/fgI4/SVAZ6QEKOvrfSOTBQpAjJStf1b6B83kpwRkJQDfsGzT0X83C9P8v1IA5MMzL1O4flMmSkDFur8g/GM2byg6VRv3C+kfNpOPEpCVAhD6cAcg7DlaAkbSWwKUcf/Ssy46hQKQ1PcE8AmBQU63SwAFQH65UwDkr28WprAwpSXAuMOlkcYbCP8ENT9jWfwHz2S+BFAA5Bc7BUD++mbpToAamUjX7jVuNeGfsMJI/UJl/Lj4D5/JdAmgAMgvdQqA/PXN0qSqBBi3s1Lbdz4FQEDZuI+LHwAm0yWAAiC/0CkA8tc3a5OaElB17yP8pQxFM7XxPxE/BExmSwAFQH6ZUwDkr28WR7wEGPcdwl9Y880XzTdhEMLhFpFOSgAFQH6RUwDkr29WR64EuAMlO1GRzj8c/cpgt0Y6hJhslgAKgPwSpwDIX98sT2HRwwIlwC0kfFNiYHjPedq6pwjhsIvIdEoABUB+gVMA5K9v1ifJEqCsf2RgODpDOvfwAnrUf0g6gJjslQAKgPzypgDIX9+8lABdrce7Y4ybqlj/h4RvCinrvicdQEx71yCP+CTA7BQAadKhmbdJoASslc45HEdltP5qZd1BQjg7RSSPKAAUgFZJB2ZuS8BIDCXA+L0V6y8igFNMGb9MOtQYCoD0EszbcAdA/meQpSkseqTrJUBV3TXS+YaTKK6KztLWbyWEs1FE8og7ABSAVkkHZZ6nmyVAGf+z5ufOEMAZULaNq6SDjaEASC/APA13AOR/BpktAR2+J0BZ9+tytfF70rmGNmjr7yKE019E8og7ABSAVkkHZAjT22kJMP4WwjdjKrUDJW19QzrgGAqA9ALMw3AHQP5nkOUpLH6k+Rr+dH77f3xO9enfkc4zTIM2bgEBnO4SkkfcAaAAtEo6GEOa6ZQAVXXvJXwzas666HRt/EbpkGMoANLLL+vDHQD5n0EepveGNkqAcfdKZxg6pK37/eanNxHC6SwiecQdAApAq6QDMcTpbeVOgHGTpTX7NQGcA8q6r0gHHRNOAbj9/vGjJYDp3jVoXtM8kg7DoEuAOX4JULb+WencQpfoO/zF2vr9hHD6iggQMukgDHl6b3j0mCVAGTc2txadRgDniLb+E9Jhx1AAAApAikrA4peUgOaX/Yy6t0jnFbptKJqprf8pIZyuIgKETDoAmfVHS4D+bQn4IuGbU/12cq427rB06DEUAIACkJ4C0jv0WLME7H1Nzb1KOqcQI2W8JYDTU0KAkEkHH7P+uQJw/cNRac3+Pyd8c65S23e+Nm6ndPAxFACAAE5BCRlcH5VWPr2+J4pmSOcTEqBM48MEcDpKCBAy8fBjouKSLUdKo24O4RuKKJqhrfuBdPgxFACEjQAWLiELNkTl1Xtvk44kJKzZ+JRxzxLC3AEAKABh3g3oW/HUnotX7jqHAA6Qtv5mCgAFAKAABPo1wbfX3y2dQxAyqxadrY3fRgmQKwEfW/cr0Y/MRdikP65ZOgRDncJ1Y1F51e7/S/gGrjzq/pgCIHgXwLijH8kptQgQNukgYmSuQXHp9kMDw5NF6fxBCijrv00JCLMEIGwEcHglpLBgY9S3ZmK+dO4gJSq1AyVtfYMSEF4JQNikw4hJ/hr03bxr+7yh6FTp3EGKKOsWUQDCKwEIGwEcVgnpHXp0qnx7/QrpvEHKzFkXna6N30QJCKsEIGzSgcQkeA0Gx6LS6t1fk84apJQybl7z6yApAeGUAISNAA6nhHq725MAAA+RSURBVBSXPe5LduKV0jmDFFPW/R0FIJwSgLBJhxKTzDUoLHwoqlTr/1M6X5By5WrjEm39fvEAZBIpAQgbARxGCSmt3MWX/aA1yvi/IoDDKAEIm3QwMfFfg96bNh8p19xryT+0Zl10ijbuQfHwY2IvAQgbAZzvElKYPxapL+xZRfShLdpMvlFbd4QQTkkREf7EwLg+NjiO/+vd6ye6/v9s/ptZKWB8xK588KZl+pY/MV5eG51J/KFt2vqaePAxqSgBFAAKgHSYMe1dg8KihyNt+LIfTFPxjokLlPW7CeEUFRGhEkABoAAQwNkqIaWVT3+X8ENHKqb+EfHQY8RLAAWAAiAdaEzr16C4dNuhvpHJAvGHzkTRDG3cDwnhsEsABYACQABn58t+1G17ryP60BX9VX+pMu5Z8dBjxEoABYACIB1sTGvXoG/FU1ubf8lF/KFrlHG3EsDhlgAKAAWAAE5/Celd/GikqvX/QPShq2bVorO1ddvFA48RKQEUAAqAdLgxJ7kGg2NR+dbdXyH6EAtdde8jgMMsARQACgABnO4SUvzctkZ59f5XEH+IjbL+HvGwYxIvARQACoB0wDEn/rIfVd13NdGHWA3UJvq1cc8QwmGVAAoABYAATm8JKd2y80GiD4lQ1g2JBx2TaAmgAFAApEOOOfY16B167HDzFzPiD4kYGI7O0MY/TAiHUwIoABQAAjiFJWRwQ1T6wjhf9oNk6VH/dvGQYxIrARQACoB42DEvuwZ9y3eMN38hI/+QOG39OkI4jBJAAaAAEMDpKiG91z8cqeGJdxB9EFGqNWYp4yfEQ46JvQRQACgA0oHHvOAaDDa/7GfXfUQfRGnjP00A578EUAAoAARwekpIccmWQxXrLyL+IGreUHSqtu7n4gHHxFoCKAAUAOnQY/7tGizYEJVv2/sZog+poEcn3qStO0II57cEUAAoAARwOkpI3/IntvUMRTOl9z7wPGX834iHGxNbCaAAUACkg49ZH/UueniqNNJ4A9GDVCneMXGBMn6cEM5nCaAAUAAI4DR82c+uL0vveuCYVNVdIx5sTCwlgAJAAaAAyBaA4pJtbk716d8hfpBOQ9FMZf2PCOH8lQAKAAWAAiAX/oUFG6Pi8PiHpFc8cEKVEX+ZMu5Z8WBjuloCKAAUAAqAXAHoW/EUX/aDbNDGrSaA81UCKAAUAAqATPj3Dj16uLRmv5be60BLZt85fq427knxUGO6VgIoABQACoBAARgci0q3Pn0r0YNMUcZ/gADOTwmgAFAAKADJF4Di53Y8PbcWnSa9z4G2aePuFQ80pislgAJAAaAAJBv+hYUPRcrwZT/IqP7qxIA27hlCOPslgAJAAaAAJFsA+m7Z+R3pHQ50RBu/RDzMmI5LAAWAAkABSC78e2/cenBg2P0u8YNMK66KzlLGbyaEs10CKAAUAApAQrf+549F+tZffVp6dwNdoWzjneJBxnRUAj72jZ1RHOJYoHevn+j6/7P5b8bxf41Ds6wR1tmd4rIntvRE0QziB7mhrP8mIRzmVwkzXAPOQIu//S/aNFW2+y+X3tdAV/WbA33Kei8eZAwlgEAmkFN6BvpW8GU/yCll658lgDNeQrgTIB4STD6vQXHJFn/xyl3nSO9pIBbzhqJTtXG/EA8xhhKQgoXPcA1e+GU/5dv2fZDoQa5Vqu6t2rgpQjjjRYQ7AQQ4Ad693/4//+S/SO9mIBHauC+JBxhDCSDAKDEpOAO9ix45wpf9IBiFkfqFyvhxQjgHRYQ7AeIBwmT4GgyOReWVu2+W3slAosrGfVw8vBhKgHQAMEFfg+LSbbv5sh+EZyiaqY3/CSGckyLCnQDxMGGydQ0KCzdGpTXjfyi9igERpZHGG7Rxh8XDi6EEpCAQmLCuQWnFk/9E9CBoyrgRAjhHJYQ7AeLBwqT/GhQWP3ao+V4o6f0LiBoY3nOetu4p8eBiKAEpCAYmgGswuCHqW7n7U0QP0PyzwFH/IQI4ZyWEOwHyQcOk8hoUl+3gy36AF1LGfV88tBhKQAoCgsnvNShcv2mqOLLvMrY/8AJ6pP4aZd1BQjhnRYQ7AeKhw6TkGgw2v+znqS+z+IFjUMYvEw8shhIgHRRMLq9B8aYtrrgqOovlDxxD88mhrd9KCOewiHAnQDyAGMFrsGBDVLr1Vx9i8QMnULaNq8TDiqEEEJgUhm7+9r/scb7sB2iFtv4uQjinRYQ7AQRrYOWqsOjhwwVzoI/tD7SgUjtQ0tY3xMOKoQSkIECYDF+DwbGob+VOvuwHaIc2bgEBnOMSwp0A+XBiYr8GvUu2Pt2zLjqF7Q+0Yc666HRt/EbxoGIoAQQlZWEaZ6CwYGPzjX9vY/ED06Ct+31t3BQhnOMiwp0AwjWnBatv+ZP3sviBDijrviIeUgwlIAWBwmTnGhQWP3KwvHr/K1j+QAf0Hf5ibf1+QjjnRYQ7AeKhxXTxjX837+TLfoBu0NZ/QjygGEoAIUlJaOEM9C7ZtpnND3TLUDRTW/9TQjiAIsKdAEI2w0WrsHDjlL5t3+tZ/kAX9dvJudq4w+IBxVACUhA0TDqvQXHFk19h8QMxUMZbAjiQEsKdAPEwY9q7Br1DW1x5bXQmyx+IQaW273xt3E7xcGIoAQQkBeGFt/7nj0Xq5l0fYPEDMVKm8WECOKASwp0AgjYDZau4bDtf9gPELopmaOt+IB5MDCUgBcHDyF+DwvWbDhfMXr7sB0hCadTNUcY9SwgHVES4EyAedMyxr0Hf8qduYfMDCdLW3yweSgwlgGAMuhgUl2x5uvlnyix/IEGzatHZ2vhthHBgRYQ7AeKhx/z2y37Kq8f/gMUPCCiPuj8WDySGEkAoBlkKepft+CcWPyBIGX83IRxgEeFOgHgAhjyFRY8c4st+AGGqeqCsrW+IBxJDCUhBMDEJXIPBsai0Yte10rsPwHNfGbyIAA60hHAngNBPuPj0Ltm6hcULpMScddHp2vhN4mHEUAL4LTzXhaSwYONUceWu10nvPAAvoIybp42bIoQDLSLcCRAPxxCmb9njX2bxAimkjfu6eBAxlIAUBBXT/WvQe8NjfmA4OkN6zwE4hnK1cYm2fj8hHHAR4U4A4R9HARoci4ornvogixdIMWX8X4mHEEMJ4LfwXBWR4tJtfNkPkHrrolO0cQ8SwoEXEe4EiIdmXqawcNPhvpvHC9KrDUALtJl8o7buiHgIMZSAFAQY08E1GGy+8e+JlSxeIEO09TUCmBLCnQAKQCcFqPfGzb9qfgW59D4D0IbiHRMXKOt3UwIoAZQASsC0CsD8DVHvql1XsniBDKqY+kcoABQA3hNAAZhOAej7HF/2A2RXFM3Qxv2QEkAJoARQAtp849+hgeE950mvMAAd6K/6S5Vxz1ICKAGUAEpAa2/8G4v6VjzxSRYvkAPKuFspABQA/kSQAtDaG/+2bJbeWQC6ZFYtOltbt50SQAmgBFACTnjrf8GGqeKqxy9j+QI5oqvufRQACgAfFkQBOFEBKH6OL/sBcklZfw8lgBJACaAEHPO3/xse8XNr0WnSewpADAZqE/3auGcoAZQASgAl4KVv/CuvePK/s3iBHFPWDVEAKAB8dwAF4EVv/FvCl/0Audf8Pm9t/MOUAEoAJYAScLQALHzo8KtH9/RK7yYACdCj/u0UAAoA3yJIAfi3T/y7lcULBERbv44SQAmgBIRdAnoXP7abL/sBAlOqNWYp4ycoAZQASkCYUxgci3qXPvEH0rsIgABt/KcpABSA454B46LeGx4VDyomnmvQt3T7d1i8QKDmDUWnaut+TgmgBFACAisa12869MoVW86X3kEABOnRiTdp645QAigBlIAUBHNCU172+GdYvAB6lPF/QwGgAJzwDPByQG6m98bNfNkPgOcU75i4QBk/TgmgBFACcj7zN0wVV+56HbsPwPNU1V1DAaAAnPQMcCcg27/9L9n2VdYegBcbimZq439MCaAEUALyOYVFjzTmfpQv+wFwDJURf5ky7llKACWAEpCzGRyLissf/1MWH4Dj0satpgBQAFo6A7wckJnpvXHLv7L2AJzQ7DvHz9XGPUkJoARQAvIxhQUbD/fdvKPA6gNwUsr4D1AAKAAtnwHuBKR6+pZu58t+ALROG3cvJYASQAnI9vTe8Og4X/YDoC391YkBbdwzlABKACUgozM4FhWWbX8bqw9A27TxSygAFIC2zgAvB6Rmiku2fpe1B2Baiquis5TxmykBlABKQLamsHDToQtvHj+X1Qdg2pRtvJMCQAFo+wxwJ0Dw1v/6qLh0+1+z9gB0TFn/TUoAJYASkI3pvfGxLaw9AF3Rbw70Kes9JYASQAlI+cwfm+pd9sTrWX0AukbZ+mcpABSAaZ0BXg5I7rf/m7Z+jbUHoKvmDUWnauN+QQmgBFAC0jmF6zc1emp82Q+AGFSq7q3auClKACWAEpDCL/tZypf9AIiRNu5LFAAKwLTPAC8HxHPrf2jzgyw+ALF6Tc29Shu3kxJACZjuGVBVFxUWPyL/W3NeZuFDB0tf2D6L1QcgdnrUv52XAigAHZVA7gR0JfwLg2NThc/teDdrD0BilHWruAtACejkDHAnoPMC0Ldky1LWHoBEDQxHZyjjvk8JoARwJ0Do0/5u3PoV1h4AEbNq0dnK+h9RAigBlIBkw7/3pi3fYO0BEFUYqV+ojBujBFACeDkgiQIwFvUt2fq3rD0AqTD7zvFzlfXfpgRQArgTEGP4z994pHfJjk9JP98B4MXWRafwxkAKQKclkDcGHufd/tc/7MorfvUfWTsAUqts/JXa+Ie5G0AZ4E8Eu/F6/1hUvHHLvT1DG06Xfm4DQGtvDjT+89q4ZygCFAHuBEwv+HsXP7q1tPTJN7NyAGROxfqLtPU3Ket3UwQoArwc0Nqb/AqLH320tGz726SfvwDQseKq6Cw16v+bMu5r2vp9lAHKAJ8Y+JLX+Bdtmui9cfPfF5Y/+RpWDoDcfq1wv6m/WY26jynrjTbuh9r6h7R1TynrPeWAcpDXNwYW5o9NFeY/9OvC9ZsmCzc8srN3aMv3CjdtX9S75IlXSz8vAQAAAAAAAAAAAAAAAAAAAAAAAAAAAAAAAAAAAAAAAAAAAAAAAAAAAAAAAAAAAAAAAAAAAAAAAAAAAAAAAAAAAAAAAAAAAAAAAAAAAAAAAAAAAAAAAAAAAAAAAAAAAAAAAAAAAAAAAAAAAAAAAAAAAAAAAAAAAAAAAAAAAAAAAAAAAAAAAAAAAAAAAAAAAAAAAAAAAAAAAAAAAAAAAAAAAAAAAAAAAAAAAAAAAAAAAAAAAAAAAAAAAAAAAAAAAADo6cD/B88Qo6FAyRxWAAAAAElFTkSuQmCC;fontColor=light-dark(#999999, #ededed);" vertex="1" parent="Lif8JBEafslfNm7ranTe-1">
          <mxGeometry x="485.49" y="334" width="60" height="60" as="geometry" />
        </mxCell>
      </root>
    </mxGraphModel>
  </diagram>
</mxfile>
